<mxfile host="65bd71144e">
    <diagram name="Page-1" id="CWN2AG6MwIvnCm97FQGH">
        <mxGraphModel dx="2658" dy="1442" grid="1" gridSize="10" guides="1" tooltips="1" connect="1" arrows="1" fold="1" page="1" pageScale="1" pageWidth="850" pageHeight="1100" math="0" shadow="0">
            <root>
                <mxCell id="0"/>
                <mxCell id="1" parent="0"/>
                <mxCell id="18" value="" style="rounded=1;whiteSpace=wrap;html=1;fillColor=none;dashed=1;dashPattern=8 8;strokeWidth=3;" vertex="1" parent="1">
                    <mxGeometry x="-1020" y="600" width="570" height="750" as="geometry"/>
                </mxCell>
                <mxCell id="mkthHcbNt94sbvCJzmiC-105" value="" style="rounded=1;whiteSpace=wrap;html=1;fillColor=none;dashed=1;dashPattern=8 8;strokeWidth=3;" parent="1" vertex="1">
                    <mxGeometry x="-1500" y="-200" width="1050" height="750" as="geometry"/>
                </mxCell>
                <mxCell id="mkthHcbNt94sbvCJzmiC-102" value="" style="rounded=1;whiteSpace=wrap;html=1;fillColor=none;dashed=1;dashPattern=8 8;strokeWidth=3;" parent="1" vertex="1">
                    <mxGeometry x="-1510" y="600" width="450" height="750" as="geometry"/>
                </mxCell>
                <mxCell id="mkthHcbNt94sbvCJzmiC-1" value="MenuItem" style="swimlane;fontStyle=0;childLayout=stackLayout;horizontal=1;startSize=30;horizontalStack=0;resizeParent=1;resizeParentMax=0;resizeLast=0;collapsible=1;marginBottom=0;whiteSpace=wrap;html=1;" parent="1" vertex="1">
                    <mxGeometry x="-660" y="920" width="140" height="270" as="geometry"/>
                </mxCell>
                <mxCell id="mkthHcbNt94sbvCJzmiC-2" value="menuitem_id" style="text;strokeColor=none;fillColor=none;align=left;verticalAlign=middle;spacingLeft=4;spacingRight=4;overflow=hidden;points=[[0,0.5],[1,0.5]];portConstraint=eastwest;rotatable=0;whiteSpace=wrap;html=1;" parent="mkthHcbNt94sbvCJzmiC-1" vertex="1">
                    <mxGeometry y="30" width="140" height="30" as="geometry"/>
                </mxCell>
                <mxCell id="mkthHcbNt94sbvCJzmiC-3" value="name&lt;span style=&quot;white-space: pre;&quot;&gt;&#x9;&lt;/span&gt;" style="text;strokeColor=none;fillColor=none;align=left;verticalAlign=middle;spacingLeft=4;spacingRight=4;overflow=hidden;points=[[0,0.5],[1,0.5]];portConstraint=eastwest;rotatable=0;whiteSpace=wrap;html=1;" parent="mkthHcbNt94sbvCJzmiC-1" vertex="1">
                    <mxGeometry y="60" width="140" height="30" as="geometry"/>
                </mxCell>
                <mxCell id="mkthHcbNt94sbvCJzmiC-23" value="description" style="text;strokeColor=none;fillColor=none;align=left;verticalAlign=middle;spacingLeft=4;spacingRight=4;overflow=hidden;points=[[0,0.5],[1,0.5]];portConstraint=eastwest;rotatable=0;whiteSpace=wrap;html=1;" parent="mkthHcbNt94sbvCJzmiC-1" vertex="1">
                    <mxGeometry y="90" width="140" height="30" as="geometry"/>
                </mxCell>
                <mxCell id="20" value="dietary_info" style="text;strokeColor=none;fillColor=none;align=left;verticalAlign=middle;spacingLeft=4;spacingRight=4;overflow=hidden;points=[[0,0.5],[1,0.5]];portConstraint=eastwest;rotatable=0;whiteSpace=wrap;html=1;" vertex="1" parent="mkthHcbNt94sbvCJzmiC-1">
                    <mxGeometry y="120" width="140" height="30" as="geometry"/>
                </mxCell>
                <mxCell id="4FKJa3b6FvUZkn6hqIa5-9" value="price" style="text;strokeColor=none;fillColor=none;align=left;verticalAlign=middle;spacingLeft=4;spacingRight=4;overflow=hidden;points=[[0,0.5],[1,0.5]];portConstraint=eastwest;rotatable=0;whiteSpace=wrap;html=1;" parent="mkthHcbNt94sbvCJzmiC-1" vertex="1">
                    <mxGeometry y="150" width="140" height="30" as="geometry"/>
                </mxCell>
                <mxCell id="ZYy3O9HhqEaIMnH16Ml5-14" value="category" style="text;strokeColor=none;fillColor=none;align=left;verticalAlign=middle;spacingLeft=4;spacingRight=4;overflow=hidden;points=[[0,0.5],[1,0.5]];portConstraint=eastwest;rotatable=0;whiteSpace=wrap;html=1;" parent="mkthHcbNt94sbvCJzmiC-1" vertex="1">
                    <mxGeometry y="180" width="140" height="30" as="geometry"/>
                </mxCell>
                <mxCell id="ZYy3O9HhqEaIMnH16Ml5-15" value="is_available" style="text;strokeColor=none;fillColor=none;align=left;verticalAlign=middle;spacingLeft=4;spacingRight=4;overflow=hidden;points=[[0,0.5],[1,0.5]];portConstraint=eastwest;rotatable=0;whiteSpace=wrap;html=1;" parent="mkthHcbNt94sbvCJzmiC-1" vertex="1">
                    <mxGeometry y="210" width="140" height="30" as="geometry"/>
                </mxCell>
                <mxCell id="ZYy3O9HhqEaIMnH16Ml5-16" value="image_url" style="text;strokeColor=none;fillColor=none;align=left;verticalAlign=middle;spacingLeft=4;spacingRight=4;overflow=hidden;points=[[0,0.5],[1,0.5]];portConstraint=eastwest;rotatable=0;whiteSpace=wrap;html=1;" parent="mkthHcbNt94sbvCJzmiC-1" vertex="1">
                    <mxGeometry y="240" width="140" height="30" as="geometry"/>
                </mxCell>
                <mxCell id="mkthHcbNt94sbvCJzmiC-5" value="&lt;div&gt;Reservation&lt;/div&gt;" style="swimlane;fontStyle=0;childLayout=stackLayout;horizontal=1;startSize=30;horizontalStack=0;resizeParent=1;resizeParentMax=0;resizeLast=0;collapsible=1;marginBottom=0;whiteSpace=wrap;html=1;" parent="1" vertex="1">
                    <mxGeometry x="-1280" y="770" width="140" height="270" as="geometry"/>
                </mxCell>
                <mxCell id="mkthHcbNt94sbvCJzmiC-6" value="reservation_id" style="text;strokeColor=none;fillColor=none;align=left;verticalAlign=middle;spacingLeft=4;spacingRight=4;overflow=hidden;points=[[0,0.5],[1,0.5]];portConstraint=eastwest;rotatable=0;whiteSpace=wrap;html=1;" parent="mkthHcbNt94sbvCJzmiC-5" vertex="1">
                    <mxGeometry y="30" width="140" height="30" as="geometry"/>
                </mxCell>
                <mxCell id="4FKJa3b6FvUZkn6hqIa5-4" value="&lt;div&gt;status&lt;/div&gt;" style="text;strokeColor=none;fillColor=none;align=left;verticalAlign=middle;spacingLeft=4;spacingRight=4;overflow=hidden;points=[[0,0.5],[1,0.5]];portConstraint=eastwest;rotatable=0;whiteSpace=wrap;html=1;" parent="mkthHcbNt94sbvCJzmiC-5" vertex="1">
                    <mxGeometry y="60" width="140" height="30" as="geometry"/>
                </mxCell>
                <mxCell id="ZYy3O9HhqEaIMnH16Ml5-7" value="date" style="text;strokeColor=none;fillColor=none;align=left;verticalAlign=middle;spacingLeft=4;spacingRight=4;overflow=hidden;points=[[0,0.5],[1,0.5]];portConstraint=eastwest;rotatable=0;whiteSpace=wrap;html=1;" parent="mkthHcbNt94sbvCJzmiC-5" vertex="1">
                    <mxGeometry y="90" width="140" height="30" as="geometry"/>
                </mxCell>
                <mxCell id="mkthHcbNt94sbvCJzmiC-142" value="time" style="text;strokeColor=none;fillColor=none;align=left;verticalAlign=middle;spacingLeft=4;spacingRight=4;overflow=hidden;points=[[0,0.5],[1,0.5]];portConstraint=eastwest;rotatable=0;whiteSpace=wrap;html=1;" parent="mkthHcbNt94sbvCJzmiC-5" vertex="1">
                    <mxGeometry y="120" width="140" height="30" as="geometry"/>
                </mxCell>
                <mxCell id="mkthHcbNt94sbvCJzmiC-8" value="people" style="text;strokeColor=none;fillColor=none;align=left;verticalAlign=middle;spacingLeft=4;spacingRight=4;overflow=hidden;points=[[0,0.5],[1,0.5]];portConstraint=eastwest;rotatable=0;whiteSpace=wrap;html=1;" parent="mkthHcbNt94sbvCJzmiC-5" vertex="1">
                    <mxGeometry y="150" width="140" height="30" as="geometry"/>
                </mxCell>
                <mxCell id="11" value="notes" style="text;strokeColor=none;fillColor=none;align=left;verticalAlign=middle;spacingLeft=4;spacingRight=4;overflow=hidden;points=[[0,0.5],[1,0.5]];portConstraint=eastwest;rotatable=0;whiteSpace=wrap;html=1;" vertex="1" parent="mkthHcbNt94sbvCJzmiC-5">
                    <mxGeometry y="180" width="140" height="30" as="geometry"/>
                </mxCell>
                <mxCell id="mkthHcbNt94sbvCJzmiC-7" value="customer_id" style="text;strokeColor=none;fillColor=none;align=left;verticalAlign=middle;spacingLeft=4;spacingRight=4;overflow=hidden;points=[[0,0.5],[1,0.5]];portConstraint=eastwest;rotatable=0;whiteSpace=wrap;html=1;" parent="mkthHcbNt94sbvCJzmiC-5" vertex="1">
                    <mxGeometry y="210" width="140" height="30" as="geometry"/>
                </mxCell>
                <mxCell id="10" value="order_id" style="text;strokeColor=none;fillColor=none;align=left;verticalAlign=middle;spacingLeft=4;spacingRight=4;overflow=hidden;points=[[0,0.5],[1,0.5]];portConstraint=eastwest;rotatable=0;whiteSpace=wrap;html=1;" parent="mkthHcbNt94sbvCJzmiC-5" vertex="1">
                    <mxGeometry y="240" width="140" height="30" as="geometry"/>
                </mxCell>
                <mxCell id="mkthHcbNt94sbvCJzmiC-17" value="&lt;div&gt;Customer&lt;/div&gt;" style="swimlane;fontStyle=0;childLayout=stackLayout;horizontal=1;startSize=30;horizontalStack=0;resizeParent=1;resizeParentMax=0;resizeLast=0;collapsible=1;marginBottom=0;whiteSpace=wrap;html=1;" parent="1" vertex="1">
                    <mxGeometry x="-1075" y="-30" width="155" height="270" as="geometry"/>
                </mxCell>
                <mxCell id="4FKJa3b6FvUZkn6hqIa5-1" value="customer_id" style="text;strokeColor=none;fillColor=none;align=left;verticalAlign=middle;spacingLeft=4;spacingRight=4;overflow=hidden;points=[[0,0.5],[1,0.5]];portConstraint=eastwest;rotatable=0;whiteSpace=wrap;html=1;" parent="mkthHcbNt94sbvCJzmiC-17" vertex="1">
                    <mxGeometry y="30" width="155" height="30" as="geometry"/>
                </mxCell>
                <mxCell id="mkthHcbNt94sbvCJzmiC-18" value="email" style="text;strokeColor=none;fillColor=none;align=left;verticalAlign=middle;spacingLeft=4;spacingRight=4;overflow=hidden;points=[[0,0.5],[1,0.5]];portConstraint=eastwest;rotatable=0;whiteSpace=wrap;html=1;" parent="mkthHcbNt94sbvCJzmiC-17" vertex="1">
                    <mxGeometry y="60" width="155" height="30" as="geometry"/>
                </mxCell>
                <mxCell id="mkthHcbNt94sbvCJzmiC-19" value="username" style="text;strokeColor=none;fillColor=none;align=left;verticalAlign=middle;spacingLeft=4;spacingRight=4;overflow=hidden;points=[[0,0.5],[1,0.5]];portConstraint=eastwest;rotatable=0;whiteSpace=wrap;html=1;" parent="mkthHcbNt94sbvCJzmiC-17" vertex="1">
                    <mxGeometry y="90" width="155" height="30" as="geometry"/>
                </mxCell>
                <mxCell id="mkthHcbNt94sbvCJzmiC-20" value="password_hash" style="text;strokeColor=none;fillColor=none;align=left;verticalAlign=middle;spacingLeft=4;spacingRight=4;overflow=hidden;points=[[0,0.5],[1,0.5]];portConstraint=eastwest;rotatable=0;whiteSpace=wrap;html=1;" parent="mkthHcbNt94sbvCJzmiC-17" vertex="1">
                    <mxGeometry y="120" width="155" height="30" as="geometry"/>
                </mxCell>
                <mxCell id="mkthHcbNt94sbvCJzmiC-144" value="password_salt" style="text;strokeColor=none;fillColor=none;align=left;verticalAlign=middle;spacingLeft=4;spacingRight=4;overflow=hidden;points=[[0,0.5],[1,0.5]];portConstraint=eastwest;rotatable=0;whiteSpace=wrap;html=1;" parent="mkthHcbNt94sbvCJzmiC-17" vertex="1">
                    <mxGeometry y="150" width="155" height="30" as="geometry"/>
                </mxCell>
                <mxCell id="mkthHcbNt94sbvCJzmiC-21" value="&lt;div&gt;phone&lt;/div&gt;" style="text;strokeColor=none;fillColor=none;align=left;verticalAlign=middle;spacingLeft=4;spacingRight=4;overflow=hidden;points=[[0,0.5],[1,0.5]];portConstraint=eastwest;rotatable=0;whiteSpace=wrap;html=1;" parent="mkthHcbNt94sbvCJzmiC-17" vertex="1">
                    <mxGeometry y="180" width="155" height="30" as="geometry"/>
                </mxCell>
                <mxCell id="ZYy3O9HhqEaIMnH16Ml5-17" value="rewards_active" style="text;strokeColor=none;fillColor=none;align=left;verticalAlign=middle;spacingLeft=4;spacingRight=4;overflow=hidden;points=[[0,0.5],[1,0.5]];portConstraint=eastwest;rotatable=0;whiteSpace=wrap;html=1;" parent="mkthHcbNt94sbvCJzmiC-17" vertex="1">
                    <mxGeometry y="210" width="155" height="30" as="geometry"/>
                </mxCell>
                <mxCell id="ZYy3O9HhqEaIMnH16Ml5-18" value="reward_points" style="text;strokeColor=none;fillColor=none;align=left;verticalAlign=middle;spacingLeft=4;spacingRight=4;overflow=hidden;points=[[0,0.5],[1,0.5]];portConstraint=eastwest;rotatable=0;whiteSpace=wrap;html=1;" parent="mkthHcbNt94sbvCJzmiC-17" vertex="1">
                    <mxGeometry y="240" width="155" height="30" as="geometry"/>
                </mxCell>
                <mxCell id="mkthHcbNt94sbvCJzmiC-38" value="UserAddress" style="swimlane;fontStyle=0;childLayout=stackLayout;horizontal=1;startSize=30;horizontalStack=0;resizeParent=1;resizeParentMax=0;resizeLast=0;collapsible=1;marginBottom=0;whiteSpace=wrap;html=1;" parent="1" vertex="1">
                    <mxGeometry x="-740" y="220" width="140" height="300" as="geometry"/>
                </mxCell>
                <mxCell id="mkthHcbNt94sbvCJzmiC-44" value="&lt;div&gt;address_id&lt;/div&gt;" style="text;strokeColor=none;fillColor=none;align=left;verticalAlign=middle;spacingLeft=4;spacingRight=4;overflow=hidden;points=[[0,0.5],[1,0.5]];portConstraint=eastwest;rotatable=0;whiteSpace=wrap;html=1;" parent="mkthHcbNt94sbvCJzmiC-38" vertex="1">
                    <mxGeometry y="30" width="140" height="30" as="geometry"/>
                </mxCell>
                <mxCell id="mkthHcbNt94sbvCJzmiC-43" value="address_name" style="text;strokeColor=none;fillColor=none;align=left;verticalAlign=middle;spacingLeft=4;spacingRight=4;overflow=hidden;points=[[0,0.5],[1,0.5]];portConstraint=eastwest;rotatable=0;whiteSpace=wrap;html=1;" parent="mkthHcbNt94sbvCJzmiC-38" vertex="1">
                    <mxGeometry y="60" width="140" height="30" as="geometry"/>
                </mxCell>
                <mxCell id="17" value="address1" style="text;strokeColor=none;fillColor=none;align=left;verticalAlign=middle;spacingLeft=4;spacingRight=4;overflow=hidden;points=[[0,0.5],[1,0.5]];portConstraint=eastwest;rotatable=0;whiteSpace=wrap;html=1;" vertex="1" parent="mkthHcbNt94sbvCJzmiC-38">
                    <mxGeometry y="90" width="140" height="30" as="geometry"/>
                </mxCell>
                <mxCell id="mkthHcbNt94sbvCJzmiC-126" value="address2" style="text;strokeColor=none;fillColor=none;align=left;verticalAlign=middle;spacingLeft=4;spacingRight=4;overflow=hidden;points=[[0,0.5],[1,0.5]];portConstraint=eastwest;rotatable=0;whiteSpace=wrap;html=1;" parent="mkthHcbNt94sbvCJzmiC-38" vertex="1">
                    <mxGeometry y="120" width="140" height="30" as="geometry"/>
                </mxCell>
                <mxCell id="mkthHcbNt94sbvCJzmiC-127" value="city" style="text;strokeColor=none;fillColor=none;align=left;verticalAlign=middle;spacingLeft=4;spacingRight=4;overflow=hidden;points=[[0,0.5],[1,0.5]];portConstraint=eastwest;rotatable=0;whiteSpace=wrap;html=1;" parent="mkthHcbNt94sbvCJzmiC-38" vertex="1">
                    <mxGeometry y="150" width="140" height="30" as="geometry"/>
                </mxCell>
                <mxCell id="mkthHcbNt94sbvCJzmiC-128" value="state" style="text;strokeColor=none;fillColor=none;align=left;verticalAlign=middle;spacingLeft=4;spacingRight=4;overflow=hidden;points=[[0,0.5],[1,0.5]];portConstraint=eastwest;rotatable=0;whiteSpace=wrap;html=1;" parent="mkthHcbNt94sbvCJzmiC-38" vertex="1">
                    <mxGeometry y="180" width="140" height="30" as="geometry"/>
                </mxCell>
                <mxCell id="mkthHcbNt94sbvCJzmiC-129" value="post_code" style="text;strokeColor=none;fillColor=none;align=left;verticalAlign=middle;spacingLeft=4;spacingRight=4;overflow=hidden;points=[[0,0.5],[1,0.5]];portConstraint=eastwest;rotatable=0;whiteSpace=wrap;html=1;" parent="mkthHcbNt94sbvCJzmiC-38" vertex="1">
                    <mxGeometry y="210" width="140" height="30" as="geometry"/>
                </mxCell>
                <mxCell id="mkthHcbNt94sbvCJzmiC-130" value="country" style="text;strokeColor=none;fillColor=none;align=left;verticalAlign=middle;spacingLeft=4;spacingRight=4;overflow=hidden;points=[[0,0.5],[1,0.5]];portConstraint=eastwest;rotatable=0;whiteSpace=wrap;html=1;" parent="mkthHcbNt94sbvCJzmiC-38" vertex="1">
                    <mxGeometry y="240" width="140" height="30" as="geometry"/>
                </mxCell>
                <mxCell id="4FKJa3b6FvUZkn6hqIa5-46" value="customer_id" style="text;strokeColor=none;fillColor=none;align=left;verticalAlign=middle;spacingLeft=4;spacingRight=4;overflow=hidden;points=[[0,0.5],[1,0.5]];portConstraint=eastwest;rotatable=0;whiteSpace=wrap;html=1;" parent="mkthHcbNt94sbvCJzmiC-38" vertex="1">
                    <mxGeometry y="270" width="140" height="30" as="geometry"/>
                </mxCell>
                <mxCell id="mkthHcbNt94sbvCJzmiC-115" value="PaymentMethod" style="swimlane;fontStyle=0;childLayout=stackLayout;horizontal=1;startSize=30;horizontalStack=0;resizeParent=1;resizeParentMax=0;resizeLast=0;collapsible=1;marginBottom=0;whiteSpace=wrap;html=1;" parent="1" vertex="1">
                    <mxGeometry x="-640" y="-80" width="140" height="270" as="geometry"/>
                </mxCell>
                <mxCell id="mkthHcbNt94sbvCJzmiC-118" value="paymentmethod_id" style="text;strokeColor=none;fillColor=none;align=left;verticalAlign=middle;spacingLeft=4;spacingRight=4;overflow=hidden;points=[[0,0.5],[1,0.5]];portConstraint=eastwest;rotatable=0;whiteSpace=wrap;html=1;" parent="mkthHcbNt94sbvCJzmiC-115" vertex="1">
                    <mxGeometry y="30" width="140" height="30" as="geometry"/>
                </mxCell>
                <mxCell id="4FKJa3b6FvUZkn6hqIa5-34" value="type" style="text;strokeColor=none;fillColor=none;align=left;verticalAlign=middle;spacingLeft=4;spacingRight=4;overflow=hidden;points=[[0,0.5],[1,0.5]];portConstraint=eastwest;rotatable=0;whiteSpace=wrap;html=1;" parent="mkthHcbNt94sbvCJzmiC-115" vertex="1">
                    <mxGeometry y="60" width="140" height="30" as="geometry"/>
                </mxCell>
                <mxCell id="4FKJa3b6FvUZkn6hqIa5-37" value="name" style="text;strokeColor=none;fillColor=none;align=left;verticalAlign=middle;spacingLeft=4;spacingRight=4;overflow=hidden;points=[[0,0.5],[1,0.5]];portConstraint=eastwest;rotatable=0;whiteSpace=wrap;html=1;" parent="mkthHcbNt94sbvCJzmiC-115" vertex="1">
                    <mxGeometry y="90" width="140" height="30" as="geometry"/>
                </mxCell>
                <mxCell id="mkthHcbNt94sbvCJzmiC-119" value="card_number" style="text;strokeColor=none;fillColor=none;align=left;verticalAlign=middle;spacingLeft=4;spacingRight=4;overflow=hidden;points=[[0,0.5],[1,0.5]];portConstraint=eastwest;rotatable=0;whiteSpace=wrap;html=1;" parent="mkthHcbNt94sbvCJzmiC-115" vertex="1">
                    <mxGeometry y="120" width="140" height="30" as="geometry"/>
                </mxCell>
                <mxCell id="4FKJa3b6FvUZkn6hqIa5-35" value="security_code" style="text;strokeColor=none;fillColor=none;align=left;verticalAlign=middle;spacingLeft=4;spacingRight=4;overflow=hidden;points=[[0,0.5],[1,0.5]];portConstraint=eastwest;rotatable=0;whiteSpace=wrap;html=1;" parent="mkthHcbNt94sbvCJzmiC-115" vertex="1">
                    <mxGeometry y="150" width="140" height="30" as="geometry"/>
                </mxCell>
                <mxCell id="4FKJa3b6FvUZkn6hqIa5-36" value="expiry_date" style="text;strokeColor=none;fillColor=none;align=left;verticalAlign=middle;spacingLeft=4;spacingRight=4;overflow=hidden;points=[[0,0.5],[1,0.5]];portConstraint=eastwest;rotatable=0;whiteSpace=wrap;html=1;" parent="mkthHcbNt94sbvCJzmiC-115" vertex="1">
                    <mxGeometry y="180" width="140" height="30" as="geometry"/>
                </mxCell>
                <mxCell id="14" value="post_code" style="text;strokeColor=none;fillColor=none;align=left;verticalAlign=middle;spacingLeft=4;spacingRight=4;overflow=hidden;points=[[0,0.5],[1,0.5]];portConstraint=eastwest;rotatable=0;whiteSpace=wrap;html=1;" vertex="1" parent="mkthHcbNt94sbvCJzmiC-115">
                    <mxGeometry y="210" width="140" height="30" as="geometry"/>
                </mxCell>
                <mxCell id="4FKJa3b6FvUZkn6hqIa5-38" value="customer_id" style="text;strokeColor=none;fillColor=none;align=left;verticalAlign=middle;spacingLeft=4;spacingRight=4;overflow=hidden;points=[[0,0.5],[1,0.5]];portConstraint=eastwest;rotatable=0;whiteSpace=wrap;html=1;" parent="mkthHcbNt94sbvCJzmiC-115" vertex="1">
                    <mxGeometry y="240" width="140" height="30" as="geometry"/>
                </mxCell>
                <mxCell id="mkthHcbNt94sbvCJzmiC-120" style="edgeStyle=orthogonalEdgeStyle;rounded=0;orthogonalLoop=1;jettySize=auto;html=1;exitX=0.99;exitY=0.787;exitDx=0;exitDy=0;entryX=0;entryY=0.5;entryDx=0;entryDy=0;startArrow=ERone;startFill=0;endArrow=ERoneToMany;endFill=0;exitPerimeter=0;" parent="1" edge="1">
                    <mxGeometry relative="1" as="geometry">
                        <mxPoint x="-921.5499999999997" y="18.610000000000127" as="sourcePoint"/>
                        <mxPoint x="-640" y="-40" as="targetPoint"/>
                        <Array as="points">
                            <mxPoint x="-900" y="19"/>
                            <mxPoint x="-780" y="19"/>
                            <mxPoint x="-780" y="-40"/>
                        </Array>
                    </mxGeometry>
                </mxCell>
                <mxCell id="mkthHcbNt94sbvCJzmiC-124" style="edgeStyle=orthogonalEdgeStyle;rounded=0;orthogonalLoop=1;jettySize=auto;html=1;exitX=1;exitY=0.5;exitDx=0;exitDy=0;entryX=0;entryY=0.5;entryDx=0;entryDy=0;startArrow=ERone;startFill=0;endArrow=ERoneToMany;endFill=0;" parent="1" source="mkthHcbNt94sbvCJzmiC-19" target="mkthHcbNt94sbvCJzmiC-44" edge="1">
                    <mxGeometry relative="1" as="geometry">
                        <mxPoint x="-575" y="-15" as="sourcePoint"/>
                        <mxPoint x="-715" y="60" as="targetPoint"/>
                        <Array as="points">
                            <mxPoint x="-885" y="75"/>
                            <mxPoint x="-885" y="265"/>
                        </Array>
                    </mxGeometry>
                </mxCell>
                <mxCell id="2ITVUSqLhhgpgQrcaJqO-44" value="Order" style="swimlane;fontStyle=0;childLayout=stackLayout;horizontal=1;startSize=30;horizontalStack=0;resizeParent=1;resizeParentMax=0;resizeLast=0;collapsible=1;marginBottom=0;whiteSpace=wrap;html=1;" parent="1" vertex="1">
                    <mxGeometry x="-910" y="720" width="140" height="420" as="geometry"/>
                </mxCell>
                <mxCell id="2ITVUSqLhhgpgQrcaJqO-45" value="order_id" style="text;strokeColor=none;fillColor=none;align=left;verticalAlign=middle;spacingLeft=4;spacingRight=4;overflow=hidden;points=[[0,0.5],[1,0.5]];portConstraint=eastwest;rotatable=0;whiteSpace=wrap;html=1;" parent="2ITVUSqLhhgpgQrcaJqO-44" vertex="1">
                    <mxGeometry y="30" width="140" height="30" as="geometry"/>
                </mxCell>
                <mxCell id="2ITVUSqLhhgpgQrcaJqO-46" value="order_type" style="text;strokeColor=none;fillColor=none;align=left;verticalAlign=middle;spacingLeft=4;spacingRight=4;overflow=hidden;points=[[0,0.5],[1,0.5]];portConstraint=eastwest;rotatable=0;whiteSpace=wrap;html=1;" parent="2ITVUSqLhhgpgQrcaJqO-44" vertex="1">
                    <mxGeometry y="60" width="140" height="30" as="geometry"/>
                </mxCell>
                <mxCell id="ZYy3O9HhqEaIMnH16Ml5-8" value="date" style="text;strokeColor=none;fillColor=none;align=left;verticalAlign=middle;spacingLeft=4;spacingRight=4;overflow=hidden;points=[[0,0.5],[1,0.5]];portConstraint=eastwest;rotatable=0;whiteSpace=wrap;html=1;" parent="2ITVUSqLhhgpgQrcaJqO-44" vertex="1">
                    <mxGeometry y="90" width="140" height="30" as="geometry"/>
                </mxCell>
                <mxCell id="ZYy3O9HhqEaIMnH16Ml5-11" value="time" style="text;strokeColor=none;fillColor=none;align=left;verticalAlign=middle;spacingLeft=4;spacingRight=4;overflow=hidden;points=[[0,0.5],[1,0.5]];portConstraint=eastwest;rotatable=0;whiteSpace=wrap;html=1;" parent="2ITVUSqLhhgpgQrcaJqO-44" vertex="1">
                    <mxGeometry y="120" width="140" height="30" as="geometry"/>
                </mxCell>
                <mxCell id="ZYy3O9HhqEaIMnH16Ml5-13" value="scheduled_time" style="text;strokeColor=none;fillColor=none;align=left;verticalAlign=middle;spacingLeft=4;spacingRight=4;overflow=hidden;points=[[0,0.5],[1,0.5]];portConstraint=eastwest;rotatable=0;whiteSpace=wrap;html=1;" parent="2ITVUSqLhhgpgQrcaJqO-44" vertex="1">
                    <mxGeometry y="150" width="140" height="30" as="geometry"/>
                </mxCell>
                <mxCell id="2ITVUSqLhhgpgQrcaJqO-47" value="status" style="text;strokeColor=none;fillColor=none;align=left;verticalAlign=middle;spacingLeft=4;spacingRight=4;overflow=hidden;points=[[0,0.5],[1,0.5]];portConstraint=eastwest;rotatable=0;whiteSpace=wrap;html=1;" parent="2ITVUSqLhhgpgQrcaJqO-44" vertex="1">
                    <mxGeometry y="180" width="140" height="30" as="geometry"/>
                </mxCell>
                <mxCell id="4FKJa3b6FvUZkn6hqIa5-2" value="price" style="text;strokeColor=none;fillColor=none;align=left;verticalAlign=middle;spacingLeft=4;spacingRight=4;overflow=hidden;points=[[0,0.5],[1,0.5]];portConstraint=eastwest;rotatable=0;whiteSpace=wrap;html=1;" parent="2ITVUSqLhhgpgQrcaJqO-44" vertex="1">
                    <mxGeometry y="210" width="140" height="30" as="geometry"/>
                </mxCell>
                <mxCell id="12" value="notes" style="text;strokeColor=none;fillColor=none;align=left;verticalAlign=middle;spacingLeft=4;spacingRight=4;overflow=hidden;points=[[0,0.5],[1,0.5]];portConstraint=eastwest;rotatable=0;whiteSpace=wrap;html=1;" vertex="1" parent="2ITVUSqLhhgpgQrcaJqO-44">
                    <mxGeometry y="240" width="140" height="30" as="geometry"/>
                </mxCell>
                <mxCell id="ZYy3O9HhqEaIMnH16Ml5-12" value="delivery_fee" style="text;strokeColor=none;fillColor=none;align=left;verticalAlign=middle;spacingLeft=4;spacingRight=4;overflow=hidden;points=[[0,0.5],[1,0.5]];portConstraint=eastwest;rotatable=0;whiteSpace=wrap;html=1;" parent="2ITVUSqLhhgpgQrcaJqO-44" vertex="1">
                    <mxGeometry y="270" width="140" height="30" as="geometry"/>
                </mxCell>
                <mxCell id="13" value="delivery_instructions" style="text;strokeColor=none;fillColor=none;align=left;verticalAlign=middle;spacingLeft=4;spacingRight=4;overflow=hidden;points=[[0,0.5],[1,0.5]];portConstraint=eastwest;rotatable=0;whiteSpace=wrap;html=1;" vertex="1" parent="2ITVUSqLhhgpgQrcaJqO-44">
                    <mxGeometry y="300" width="140" height="30" as="geometry"/>
                </mxCell>
                <mxCell id="2ITVUSqLhhgpgQrcaJqO-54" value="customer_id" style="text;strokeColor=none;fillColor=none;align=left;verticalAlign=middle;spacingLeft=4;spacingRight=4;overflow=hidden;points=[[0,0.5],[1,0.5]];portConstraint=eastwest;rotatable=0;whiteSpace=wrap;html=1;" parent="2ITVUSqLhhgpgQrcaJqO-44" vertex="1">
                    <mxGeometry y="330" width="140" height="30" as="geometry"/>
                </mxCell>
                <mxCell id="ZYy3O9HhqEaIMnH16Ml5-9" value="address_id" style="text;strokeColor=none;fillColor=none;align=left;verticalAlign=middle;spacingLeft=4;spacingRight=4;overflow=hidden;points=[[0,0.5],[1,0.5]];portConstraint=eastwest;rotatable=0;whiteSpace=wrap;html=1;" parent="2ITVUSqLhhgpgQrcaJqO-44" vertex="1">
                    <mxGeometry y="360" width="140" height="30" as="geometry"/>
                </mxCell>
                <mxCell id="2" value="reservation_id" style="text;strokeColor=none;fillColor=none;align=left;verticalAlign=middle;spacingLeft=4;spacingRight=4;overflow=hidden;points=[[0,0.5],[1,0.5]];portConstraint=eastwest;rotatable=0;whiteSpace=wrap;html=1;" parent="2ITVUSqLhhgpgQrcaJqO-44" vertex="1">
                    <mxGeometry y="390" width="140" height="30" as="geometry"/>
                </mxCell>
                <mxCell id="2ITVUSqLhhgpgQrcaJqO-49" value="&lt;div&gt;OrderMenuItem&lt;/div&gt;" style="swimlane;fontStyle=0;childLayout=stackLayout;horizontal=1;startSize=30;horizontalStack=0;resizeParent=1;resizeParentMax=0;resizeLast=0;collapsible=1;marginBottom=0;whiteSpace=wrap;html=1;" parent="1" vertex="1">
                    <mxGeometry x="-700" y="720" width="180" height="120" as="geometry"/>
                </mxCell>
                <mxCell id="2ITVUSqLhhgpgQrcaJqO-50" value="order_id&lt;span style=&quot;white-space: pre;&quot;&gt;&#x9;&lt;/span&gt;" style="text;strokeColor=none;fillColor=none;align=left;verticalAlign=middle;spacingLeft=4;spacingRight=4;overflow=hidden;points=[[0,0.5],[1,0.5]];portConstraint=eastwest;rotatable=0;whiteSpace=wrap;html=1;" parent="2ITVUSqLhhgpgQrcaJqO-49" vertex="1">
                    <mxGeometry y="30" width="180" height="30" as="geometry"/>
                </mxCell>
                <mxCell id="2ITVUSqLhhgpgQrcaJqO-51" value="menuitem_id" style="text;strokeColor=none;fillColor=none;align=left;verticalAlign=middle;spacingLeft=4;spacingRight=4;overflow=hidden;points=[[0,0.5],[1,0.5]];portConstraint=eastwest;rotatable=0;whiteSpace=wrap;html=1;" parent="2ITVUSqLhhgpgQrcaJqO-49" vertex="1">
                    <mxGeometry y="60" width="180" height="60" as="geometry"/>
                </mxCell>
                <mxCell id="4FKJa3b6FvUZkn6hqIa5-3" style="edgeStyle=orthogonalEdgeStyle;rounded=0;orthogonalLoop=1;jettySize=auto;html=1;exitX=0;exitY=0.5;exitDx=0;exitDy=0;startArrow=ERone;startFill=0;endArrow=ERoneToMany;endFill=0;" parent="1" source="mkthHcbNt94sbvCJzmiC-18" edge="1">
                    <mxGeometry relative="1" as="geometry">
                        <mxPoint x="-1215" y="55" as="sourcePoint"/>
                        <mxPoint x="-1280" y="930" as="targetPoint"/>
                        <Array as="points">
                            <mxPoint x="-1440" y="45"/>
                            <mxPoint x="-1440" y="930"/>
                            <mxPoint x="-1280" y="930"/>
                        </Array>
                    </mxGeometry>
                </mxCell>
                <mxCell id="4FKJa3b6FvUZkn6hqIa5-6" style="edgeStyle=orthogonalEdgeStyle;rounded=0;orthogonalLoop=1;jettySize=auto;html=1;exitX=0;exitY=0.5;exitDx=0;exitDy=0;startArrow=ERone;startFill=0;endArrow=ERoneToMany;endFill=0;entryX=0.5;entryY=0;entryDx=0;entryDy=0;" parent="1" source="mkthHcbNt94sbvCJzmiC-144" target="2ITVUSqLhhgpgQrcaJqO-44" edge="1">
                    <mxGeometry relative="1" as="geometry">
                        <mxPoint x="-1077" y="280" as="sourcePoint"/>
                        <mxPoint x="-1280" y="280" as="targetPoint"/>
                        <Array as="points">
                            <mxPoint x="-1150" y="135"/>
                            <mxPoint x="-1150" y="410"/>
                            <mxPoint x="-840" y="410"/>
                        </Array>
                    </mxGeometry>
                </mxCell>
                <mxCell id="4FKJa3b6FvUZkn6hqIa5-22" style="edgeStyle=orthogonalEdgeStyle;rounded=0;orthogonalLoop=1;jettySize=auto;html=1;entryX=-0.001;entryY=0.025;entryDx=0;entryDy=0;startArrow=ERone;startFill=0;endArrow=ERoneToMany;endFill=0;entryPerimeter=0;" parent="1" target="2ITVUSqLhhgpgQrcaJqO-51" edge="1">
                    <mxGeometry relative="1" as="geometry">
                        <mxPoint x="-770" y="782" as="sourcePoint"/>
                        <mxPoint x="-1235" y="290" as="targetPoint"/>
                        <Array as="points">
                            <mxPoint x="-740" y="782"/>
                        </Array>
                    </mxGeometry>
                </mxCell>
                <mxCell id="ZYy3O9HhqEaIMnH16Ml5-20" value="UserPreferences" style="swimlane;fontStyle=0;childLayout=stackLayout;horizontal=1;startSize=30;horizontalStack=0;resizeParent=1;resizeParentMax=0;resizeLast=0;collapsible=1;marginBottom=0;whiteSpace=wrap;html=1;" parent="1" vertex="1">
                    <mxGeometry x="-1370" y="130" width="140" height="180" as="geometry"/>
                </mxCell>
                <mxCell id="ZYy3O9HhqEaIMnH16Ml5-21" value="userpreferences_id" style="text;strokeColor=none;fillColor=none;align=left;verticalAlign=middle;spacingLeft=4;spacingRight=4;overflow=hidden;points=[[0,0.5],[1,0.5]];portConstraint=eastwest;rotatable=0;whiteSpace=wrap;html=1;" parent="ZYy3O9HhqEaIMnH16Ml5-20" vertex="1">
                    <mxGeometry y="30" width="140" height="30" as="geometry"/>
                </mxCell>
                <mxCell id="ZYy3O9HhqEaIMnH16Ml5-25" value="name" style="text;strokeColor=none;fillColor=none;align=left;verticalAlign=middle;spacingLeft=4;spacingRight=4;overflow=hidden;points=[[0,0.5],[1,0.5]];portConstraint=eastwest;rotatable=0;whiteSpace=wrap;html=1;" parent="ZYy3O9HhqEaIMnH16Ml5-20" vertex="1">
                    <mxGeometry y="60" width="140" height="30" as="geometry"/>
                </mxCell>
                <mxCell id="ZYy3O9HhqEaIMnH16Ml5-22" value="favourite_dish" style="text;strokeColor=none;fillColor=none;align=left;verticalAlign=middle;spacingLeft=4;spacingRight=4;overflow=hidden;points=[[0,0.5],[1,0.5]];portConstraint=eastwest;rotatable=0;whiteSpace=wrap;html=1;" parent="ZYy3O9HhqEaIMnH16Ml5-20" vertex="1">
                    <mxGeometry y="90" width="140" height="30" as="geometry"/>
                </mxCell>
                <mxCell id="ZYy3O9HhqEaIMnH16Ml5-23" value="dietery_notes" style="text;strokeColor=none;fillColor=none;align=left;verticalAlign=middle;spacingLeft=4;spacingRight=4;overflow=hidden;points=[[0,0.5],[1,0.5]];portConstraint=eastwest;rotatable=0;whiteSpace=wrap;html=1;" parent="ZYy3O9HhqEaIMnH16Ml5-20" vertex="1">
                    <mxGeometry y="120" width="140" height="30" as="geometry"/>
                </mxCell>
                <mxCell id="ZYy3O9HhqEaIMnH16Ml5-27" value="customer_id" style="text;strokeColor=none;fillColor=none;align=left;verticalAlign=middle;spacingLeft=4;spacingRight=4;overflow=hidden;points=[[0,0.5],[1,0.5]];portConstraint=eastwest;rotatable=0;whiteSpace=wrap;html=1;" parent="ZYy3O9HhqEaIMnH16Ml5-20" vertex="1">
                    <mxGeometry y="150" width="140" height="30" as="geometry"/>
                </mxCell>
                <mxCell id="ZYy3O9HhqEaIMnH16Ml5-28" style="edgeStyle=orthogonalEdgeStyle;rounded=0;orthogonalLoop=1;jettySize=auto;html=1;exitX=0;exitY=0.5;exitDx=0;exitDy=0;entryX=0.659;entryY=0;entryDx=0;entryDy=0;startArrow=ERone;startFill=0;endArrow=ERoneToMany;endFill=0;entryPerimeter=0;" parent="1" target="ZYy3O9HhqEaIMnH16Ml5-20" edge="1">
                    <mxGeometry relative="1" as="geometry">
                        <mxPoint x="-1075" y="90" as="sourcePoint"/>
                        <mxPoint x="-1688" y="90" as="targetPoint"/>
                    </mxGeometry>
                </mxCell>
                <mxCell id="4FKJa3b6FvUZkn6hqIa5-23" style="edgeStyle=orthogonalEdgeStyle;rounded=0;orthogonalLoop=1;jettySize=auto;html=1;startArrow=ERone;startFill=0;endArrow=ERoneToMany;endFill=0;" parent="1" edge="1">
                    <mxGeometry relative="1" as="geometry">
                        <mxPoint x="-570.5799999999999" y="920" as="sourcePoint"/>
                        <mxPoint x="-570.8299999999999" y="840" as="targetPoint"/>
                        <Array as="points">
                            <mxPoint x="-570.5799999999999" y="920"/>
                            <mxPoint x="-570.5799999999999" y="882"/>
                            <mxPoint x="-570.5799999999999" y="882"/>
                        </Array>
                    </mxGeometry>
                </mxCell>
                <mxCell id="9" value="" style="edgeStyle=orthogonalEdgeStyle;fontSize=12;html=1;endArrow=ERone;startArrow=ERone;exitX=1;exitY=0.5;exitDx=0;exitDy=0;startFill=0;endFill=0;rounded=0;" parent="1" source="11" edge="1">
                    <mxGeometry width="100" height="100" relative="1" as="geometry">
                        <mxPoint x="-1375" y="860" as="sourcePoint"/>
                        <mxPoint x="-910" y="965" as="targetPoint"/>
                        <Array as="points">
                            <mxPoint x="-910" y="965"/>
                        </Array>
                    </mxGeometry>
                </mxCell>
                <mxCell id="ZYy3O9HhqEaIMnH16Ml5-10" style="edgeStyle=orthogonalEdgeStyle;rounded=0;orthogonalLoop=1;jettySize=auto;html=1;startArrow=ERone;startFill=0;endArrow=ERoneToMany;endFill=0;" parent="1" edge="1">
                    <mxGeometry relative="1" as="geometry">
                        <mxPoint x="-740" y="410" as="sourcePoint"/>
                        <mxPoint x="-800" y="720" as="targetPoint"/>
                        <Array as="points">
                            <mxPoint x="-800" y="410"/>
                        </Array>
                    </mxGeometry>
                </mxCell>
            </root>
        </mxGraphModel>
    </diagram>
</mxfile>